<?xml version="1.0" encoding="utf-8"?>
<!-- Generator: Adobe Illustrator 24.0.0, SVG Export Plug-In . SVG Version: 6.00 Build 0)  -->
<svg version="1.1" id="Layer_1" xmlns="http://www.w3.org/2000/svg" xmlns:xlink="http://www.w3.org/1999/xlink" x="0px" y="0px"
	 viewBox="0 0 70 70" style="enable-background:new 0 0 70 70;" xml:space="preserve">
<style type="text/css">
	.st0{fill:#808181;}
</style>
<g>
	<path class="st0" d="M8.5,8.6C-2.3,19.4-2.5,36.73,8.07,47.3c10.14,10.14,26.5,10.37,37.36,0.82l1.03,1.03
		c-0.34,1.22-0.04,2.57,0.9,3.51L62.79,68.1c1.41,1.41,3.72,1.38,5.16-0.06c1.44-1.44,1.47-3.75,0.06-5.16L52.57,47.44
		c-0.94-0.94-2.29-1.24-3.51-0.9l-1.03-1.03c9.54-10.86,9.32-27.22-0.82-37.36C36.64-2.41,19.31-2.21,8.5,8.6z M49.53,27.48
		c-0.07,5.85-2.41,11.37-6.59,15.55c-4.18,4.18-9.71,6.52-15.55,6.59c-5.85,0.07-11.32-2.15-15.41-6.24
		c-4.09-4.09-6.3-9.56-6.24-15.41c0.07-5.85,2.41-11.37,6.59-15.55c4.18-4.18,9.71-6.52,15.55-6.59c5.85-0.07,11.32,2.15,15.41,6.24
		C47.38,16.16,49.6,21.63,49.53,27.48z"/>
</g>
</svg>
