
<svg xmlns="http://www.w3.org/2000/svg" xmlns:xlink="http://www.w3.org/1999/xlink" width="298pt" height="94pt" viewBox="0 0 298 94" version="1.1">
<g id="surface1">
<path style="stroke:none;fill-rule:nonzero;fill:rgb(13.72549%,9.411765%,8.235294%);fill-opacity:1" d="M 298 92.96875 L 298 47.605469 L 288 47.605469 L 289.9375 51.011719 L 289.9375 92.96875 Z M 298 92.96875 "></path>
<path style="stroke:none;fill-rule:nonzero;fill:rgb(13.72549%,9.411765%,8.235294%);fill-opacity:1" d="M 181.367188 92.96875 L 181.367188 47.605469 L 173.03125 47.605469 C 173.78125 48.820312 174.410156 50.109375 174.90625 51.449219 L 174.90625 79.496094 L 152.511719 47.605469 L 142.574219 47.605469 L 145.28125 51.59375 L 145.28125 92.96875 L 151.675781 92.96875 L 151.675781 60.992188 L 174.199219 92.96875 Z M 181.367188 92.96875 "></path>
<path style="stroke:none;fill-rule:nonzero;fill:rgb(13.72549%,9.411765%,8.235294%);fill-opacity:1" d="M 130.53125 85.90625 L 130.53125 47.585938 L 120.488281 47.585938 L 122.570312 51.011719 L 122.570312 85.425781 C 120.480469 86.785156 118.042969 87.507812 115.550781 87.515625 C 112.78125 87.441406 110.160156 86.261719 108.261719 84.246094 C 106.359375 82.226562 105.339844 79.535156 105.425781 76.761719 L 105.425781 47.523438 L 95.421875 47.523438 L 97.339844 50.945312 L 97.339844 79.183594 C 97.304688 83.070312 98.832031 86.808594 101.574219 89.558594 C 104.316406 92.304688 108.046875 93.835938 111.925781 93.800781 C 117.902344 93.800781 121.445312 91.714844 126.507812 88.726562 C 127.964844 87.871094 129.359375 86.90625 130.675781 85.84375 "></path>
<path style="stroke:none;fill-rule:nonzero;fill:rgb(13.72549%,9.411765%,8.235294%);fill-opacity:1" d="M 86.382812 47.605469 L 75.859375 47.605469 L 77.046875 51.011719 L 67.609375 67.445312 L 56.316406 47.605469 L 46.691406 47.605469 L 62.585938 74.878906 L 62.585938 92.96875 L 70.671875 92.96875 L 70.671875 74.628906 Z M 86.382812 47.605469 "></path>
<path style="stroke:none;fill-rule:nonzero;fill:rgb(13.72549%,9.411765%,8.235294%);fill-opacity:1" d="M 36.230469 92.96875 L 36.230469 47.605469 L 26.25 47.605469 L 28.148438 51.011719 L 28.148438 66.277344 L 9.980469 66.277344 L 9.980469 47.605469 L 0 47.605469 L 1.894531 51.011719 L 1.894531 92.96875 L 9.980469 92.96875 L 9.980469 72.605469 L 28.148438 72.605469 L 28.148438 92.96875 Z M 36.230469 92.96875 "></path>
<path style="stroke:none;fill-rule:nonzero;fill:rgb(13.72549%,9.411765%,8.235294%);fill-opacity:1" d="M 212.035156 47.585938 L 193.449219 47.585938 L 195.347656 51.011719 L 195.347656 92.96875 L 208.347656 92.96875 C 212.183594 92.980469 215.945312 91.933594 219.222656 89.9375 C 220.410156 89.292969 221.578125 88.519531 222.808594 87.851562 C 229.335938 83.859375 233.292969 76.71875 233.226562 69.054688 C 233.300781 63.382812 231.117188 57.910156 227.15625 53.859375 C 223.191406 49.808594 217.777344 47.511719 212.117188 47.480469 M 218.371094 85.261719 C 216.339844 86.378906 214.03125 86.878906 211.722656 86.703125 L 203.597656 86.703125 L 203.597656 53.765625 L 208.140625 53.765625 C 212.71875 53.835938 217.082031 55.742188 220.253906 59.058594 C 223.421875 62.375 225.140625 66.824219 225.015625 71.414062 C 225.195312 76.886719 222.6875 82.097656 218.308594 85.363281 "></path>
<path style="stroke:none;fill-rule:nonzero;fill:rgb(13.72549%,9.411765%,8.235294%);fill-opacity:1" d="M 261.683594 47.605469 L 252.933594 47.605469 L 254.394531 51.011719 L 236.558594 92.96875 L 246.058594 92.96875 L 244.808594 89.542969 L 248.640625 80.476562 L 266.808594 80.476562 L 272.125 93.007812 L 280.914062 93.007812 Z M 251.265625 74.402344 L 257.789062 59.09375 L 264.289062 74.402344 Z M 251.265625 74.402344 "></path>
<path style="stroke:none;fill-rule:nonzero;fill:rgb(13.72549%,9.411765%,8.235294%);fill-opacity:1" d="M 118.132812 0.136719 L 117.027344 3.015625 L 122.695312 3.015625 L 122.695312 21.417969 L 126.53125 21.417969 L 126.53125 3.015625 L 131.09375 3.015625 L 132.175781 0.136719 Z M 118.132812 0.136719 "></path>
<path style="stroke:none;fill-rule:nonzero;fill:rgb(13.72549%,9.411765%,8.235294%);fill-opacity:1" d="M 149.425781 0.136719 L 150.34375 1.703125 L 150.34375 8.886719 L 141.800781 8.886719 L 141.800781 0.136719 L 137.132812 0.136719 L 137.988281 1.703125 L 137.988281 21.417969 L 141.800781 21.417969 L 141.800781 11.851562 L 150.34375 11.851562 L 150.34375 21.417969 L 154.113281 21.417969 L 154.113281 0.136719 Z M 149.425781 0.136719 "></path>
<path style="stroke:none;fill-rule:nonzero;fill:rgb(13.72549%,9.411765%,8.235294%);fill-opacity:1" d="M 159.65625 0.136719 L 160.554688 1.703125 L 160.554688 21.417969 L 172.242188 21.417969 L 173.304688 18.511719 L 164.367188 18.511719 L 164.367188 11.851562 L 172.242188 11.851562 L 173.304688 8.949219 L 164.367188 8.949219 L 164.367188 3.015625 L 172.242188 3.015625 L 173.304688 0.136719 Z M 159.65625 0.136719 "></path>
</g>
</svg>
