<?xml version="1.0" encoding="UTF-8"?><svg id="a" xmlns="http://www.w3.org/2000/svg" viewBox="0 0 195.33 18.57"><defs><style>.b{fill:#fff;}</style></defs><path class="b" d="M74.83,18.54h-3.56V.03h3.56V18.54Z"/><path class="b" d="M97.83,2.37l-8.4,16.17h-3.75L95.95,.03h3.81l10.9,18.51h-4L97.83,2.37Z"/><path class="b" d="M140.1,2.23h-8.83V18.57h-3.56V2.23h-6.31c-1.55,0-2.47-2.2-2.47-2.2h21.18V2.23h-.01Z"/><path class="b" d="M170.41,2.23h-8.83V18.57h-3.56V2.23h-6.31c-1.55,0-2.47-2.2-2.47-2.2h21.18V2.23h-.01Z"/><path class="b" d="M185.68,18.54h-3.56V.03h3.56V18.54Z"/><path class="b" d="M195.33,18.54h-3.56v-3.4h3.56v3.4Z"/><g><path class="b" d="M47.95,8.05l-4.46-3.1s-.33,.71,.24,1.11,10.25,7.09,10.25,7.09c0,0,.16-.82-.41-1.22-.57-.41-3.34-2.31-3.34-2.31l8.67-7.31V0h-19.16s.79,2.2,2.91,2.2h12.18l-6.88,5.84h0Z"/><path class="b" d="M42.3,16.34l6.71-5.68-2.31-1.6-6.17,5.19-2.31,1.96v2.31h22.21s-.79-2.2-3.04-2.2-15.09,.03-15.09,.03h0Z"/></g><g><polygon class="b" points="0 12.8 0 18.54 5.74 18.54 18.51 5.71 18.51 .03 14.81 .03 12.78 .03 0 12.8"/><polygon class="b" points="8.89 .03 7.39 .03 3.7 .03 0 .03 0 8.92 8.89 .03"/><polygon class="b" points="9.62 18.54 18.51 18.54 18.51 9.65 9.62 18.54"/></g></svg>