<svg id="레이어_1" data-name="레이어 1" xmlns="http://www.w3.org/2000/svg" viewBox="0 0 153 211.3"><defs><style>.cls-1{fill:#231815;}.cls-2{fill:#fff;}</style></defs><path class="cls-1" d="M256.66,648.3H134.86a15.62,15.62,0,0,1-15.6-15.6V452.6a15.62,15.62,0,0,1,15.6-15.6h121.8a15.62,15.62,0,0,1,15.6,15.6V632.7A15.62,15.62,0,0,1,256.66,648.3ZM134.86,447a5.6,5.6,0,0,0-5.6,5.6V602.4a5.6,5.6,0,0,0,5.6,5.6h121.8a5.6,5.6,0,0,0,5.6-5.6V452.6a5.6,5.6,0,0,0-5.6-5.6Z" transform="translate(-119.26 -437)"/><path class="cls-1" d="M211,512.63q10.11,2.48,15.59,9.59a26.59,26.59,0,0,1,5.47,16.7q0,14.31-10.49,23.25t-26.05,9q-15.63,0-25.45-8a28,28,0,0,1-10.57-21.07H174.2a17.88,17.88,0,0,0,5.52,13.11q5.5,5.49,15.78,5.49,10,0,15.89-6t5.93-15.5q0-9.72-6.16-15T193.23,519H187.8V508.62H191q20.69,0,20.69-17.76,0-7.83-4.53-12t-12.76-4.16q-16.92,0-18.88,16.42H160.92q1.58-13.11,10.72-20t22.5-6.87q14.79,0,23.56,7.5a24.35,24.35,0,0,1,8.75,19.35,22.66,22.66,0,0,1-3.81,12.51Q218.83,509.53,211,512.63Z" transform="translate(-119.26 -437)"/><path class="cls-1" d="M175.4,593v-5.43l-4.75-7.46h3.07l3.05,5.1,3-5.1h3L178,587.56V593Z" transform="translate(-119.26 -437)"/><path class="cls-1" d="M184.07,593V580.08h9.61v2.18h-7v2.86h6.51v2.17h-6.51v3.51h7.24V593Z" transform="translate(-119.26 -437)"/><path class="cls-1" d="M207.83,593H205L203.85,590h-5.18L197.6,593h-2.78l5.05-12.89h2.77Zm-4.82-5.1-1.79-4.78-1.75,4.78Z" transform="translate(-119.26 -437)"/><path class="cls-1" d="M209.22,593V580.08h5.51a9.54,9.54,0,0,1,3,.35,3,3,0,0,1,1.5,1.23,3.7,3.7,0,0,1,.57,2,3.44,3.44,0,0,1-.86,2.4,4.08,4.08,0,0,1-2.56,1.19,6.39,6.39,0,0,1,1.4,1.08,14.9,14.9,0,0,1,1.49,2.09l1.58,2.52h-3.13l-1.89-2.81a17.43,17.43,0,0,0-1.38-1.89,2.12,2.12,0,0,0-.78-.54,4.65,4.65,0,0,0-1.32-.14h-.53V593Zm2.62-7.44h1.93a9.86,9.86,0,0,0,2.36-.16,1.37,1.37,0,0,0,.73-.54,1.65,1.65,0,0,0,.26-1,1.52,1.52,0,0,0-.35-1.05,1.57,1.57,0,0,0-1-.5c-.21,0-.85,0-1.91,0h-2Z" transform="translate(-119.26 -437)"/><path class="cls-2" d="M146.59,636.42l-3.09-12.89h2.67l2,8.85,2.37-8.85h3.11l2.27,9,2-9h2.63l-3.15,12.89h-2.77L152,626.78l-2.57,9.64Z" transform="translate(-119.26 -437)"/><path class="cls-2" d="M172.52,636.42h-2.84l-1.14-2.93h-5.18l-1.06,2.93h-2.78l5-12.89h2.76Zm-4.82-5.1-1.78-4.78-1.75,4.78Z" transform="translate(-119.26 -437)"/><path class="cls-2" d="M173.92,636.42V623.53h5.5a9.5,9.5,0,0,1,3,.35,3,3,0,0,1,1.51,1.23,3.69,3.69,0,0,1,.56,2,3.44,3.44,0,0,1-.85,2.4,4.11,4.11,0,0,1-2.57,1.19,6.23,6.23,0,0,1,1.41,1.08A15,15,0,0,1,184,633.9l1.59,2.52h-3.13l-1.89-2.81a19,19,0,0,0-1.38-1.89,2.07,2.07,0,0,0-.79-.54,4.6,4.6,0,0,0-1.32-.14h-.53v5.38Zm2.61-7.44h1.94a9.76,9.76,0,0,0,2.35-.16,1.34,1.34,0,0,0,.73-.54,1.66,1.66,0,0,0,.27-1,1.57,1.57,0,0,0-.35-1,1.63,1.63,0,0,0-1-.51c-.21,0-.84,0-1.9,0h-2.05Z" transform="translate(-119.26 -437)"/><path class="cls-2" d="M187,636.42V623.53h5.51a9.43,9.43,0,0,1,3,.35,3,3,0,0,1,1.51,1.23,3.7,3.7,0,0,1,.57,2,3.44,3.44,0,0,1-.86,2.4,4.11,4.11,0,0,1-2.56,1.19,6.39,6.39,0,0,1,1.4,1.08,14.9,14.9,0,0,1,1.49,2.09l1.58,2.52h-3.13l-1.89-2.81a17.43,17.43,0,0,0-1.38-1.89,2.07,2.07,0,0,0-.79-.54,4.52,4.52,0,0,0-1.31-.14h-.53v5.38Zm2.62-7.44h1.93a9.7,9.7,0,0,0,2.35-.16,1.4,1.4,0,0,0,.74-.54,1.73,1.73,0,0,0,.26-1,1.57,1.57,0,0,0-.35-1,1.63,1.63,0,0,0-1-.51c-.22,0-.85,0-1.91,0h-2Z" transform="translate(-119.26 -437)"/><path class="cls-2" d="M211.74,636.42h-2.85l-1.13-2.93h-5.18l-1.07,2.93h-2.78l5.05-12.89h2.77Zm-4.82-5.1-1.79-4.78-1.75,4.78Z" transform="translate(-119.26 -437)"/><path class="cls-2" d="M213.15,636.42V623.53h2.55l5.3,8.61v-8.61h2.43v12.89H220.8L215.58,628v8.41Z" transform="translate(-119.26 -437)"/><path class="cls-2" d="M229.11,636.42V625.71h-3.84v-2.18h10.3v2.18h-3.84v10.71Z" transform="translate(-119.26 -437)"/><path class="cls-2" d="M240.66,636.42V631l-4.75-7.46H239l3.05,5.1,3-5.1h3L243.26,631v5.41Z" transform="translate(-119.26 -437)"/></svg>